# xmcd
#
# Track frame offsets:
# 150
# 25957
# 43912
# 68712
# 97065
# 121667
#
# Disc length: 1978 seconds
#
#
# Revision: 2
# Processed by: cddbd v1.5.1PL0 Copyright (c) Steve Scherf et al.
# Submitted via: FreeRIP 2.80 
#
DISCID=4c07b806
DTITLE=Eugene Cicero - Rokoko-Jazz
DYEAR=2000
DGENRE=Jazz
TTITLE0=Solfeggio C-Moll
TTITLE1=Sonate C-Dur
TTITLE2=L'adolescente
TTITLE3=Bach's softly sunrise
TTITLE4=Fantasie in D-Moll
TTITLE5=Erbarme dich, mein Gott
EXTD=
EXTT0=
EXTT1=
EXTT2=
EXTT3=
EXTT4=
EXTT5=
PLAYORDER=
